# xmcd
#
# Track frame offsets: 
#        150
#        14209
#        30607
#        48639
#        64732
#
# Disc length: 1075 seconds
#
# Revision: 0
# Processed by: cddbd v1.5.2PL0 Copyright (c) Steve Scherf et al.
# Submitted via: ExactAudioCopy v1.1
#
DISCID=43043105
DTITLE=American Young - American Young
DYEAR=2013
DGENRE=Country
TTITLE0=Love Is War
TTITLE1=Ain't Looking For Love
TTITLE2=God Sends A Train
TTITLE3=Soldier's Wife (Don't Want You To Go)
TTITLE4=Saturday Night
EXTD=
EXTT0=
EXTT1=
EXTT2=
EXTT3=
EXTT4=
PLAYORDER=
